<svg width="210" height="211" viewBox="0 0 210 211" fill="none" xmlns="http://www.w3.org/2000/svg">
  <path d="M186.529 142H163V165.543H186.529V142Z" fill="#63B8F6" />
  <path d="M162.529 118H139V141.543H162.529V118Z" fill="#0E8DE6" />
  <path d="M162.529 165H139V188.543H162.529V165Z" fill="#DBF0FF" />
  <path d="M139.529 24H116V47.5426H139.529V24Z" fill="#90CDF9" />
  <path d="M21.7646 36.2881V153.321" stroke="#F5F5F5" strokeMiterlimit="10" />
  <path d="M45.2939 23.8369V178.041" stroke="#F5F5F5" strokeMiterlimit="10" />
  <path d="M68.8242 45.5V211" stroke="#F5F5F5" strokeMiterlimit="10" />
  <path d="M68.8242 12.0654V47.3792" stroke="#F5F5F5" strokeMiterlimit="10" />
  <path d="M92.3525 47.5V200.491" stroke="#F5F5F5" strokeMiterlimit="10" />
  <path d="M92.3525 12.0654V47.3792" stroke="#F5F5F5" strokeMiterlimit="10" />
  <path d="M115.883 47.5V200.492" stroke="#F5F5F5" strokeMiterlimit="10" />
  <path d="M115.883 0V47.4647" stroke="#F5F5F5" strokeMiterlimit="10" />
  <path d="M139.412 46.5V188.635" stroke="#F5F5F5" strokeMiterlimit="10" />
  <path d="M139.412 12.0654V47.6735" stroke="#F5F5F5" strokeMiterlimit="10" />
  <path d="M162.94 36.1963V47.5M162.94 200.491V106" stroke="#F5F5F5" strokeMiterlimit="10" />
  <path d="M186.471 23.8369V71M186.471 178.041V117.5" stroke="#F5F5F5" strokeMiterlimit="10" />
  <path d="M174.706 23.9219H33.5293" stroke="#F5F5F5" strokeMiterlimit="10" />
  <path d="M115.882 47.4648H10" stroke="#F5F5F5" strokeMiterlimit="10" />
  <path d="M174.706 47.4648H115.883" stroke="#F5F5F5" strokeMiterlimit="10" />
  <path d="M45.2941 71.0068H0" stroke="#F5F5F5" strokeMiterlimit="10" />
  <path d="M209.117 71.0068H186.5M44 71.0068H139.5" stroke="#F5F5F5" strokeMiterlimit="10" />
  <path d="M139.5 94.5498H21.7646" stroke="#F5F5F5" strokeMiterlimit="10" />
  <path d="M45.2941 118.093H10" stroke="#F5F5F5" strokeMiterlimit="10" />
  <path d="M198.235 118.093H20" stroke="#F5F5F5" strokeMiterlimit="10" />
  <path d="M209.118 141.635H33.5293" stroke="#F5F5F5" strokeMiterlimit="10" />
  <path d="M198.235 165.178H10" stroke="#F5F5F5" strokeMiterlimit="10" />
  <path d="M186.471 188.72H21.7646" stroke="#F5F5F5" strokeMiterlimit="10" />
  <circle cx="54" cy="173" r="27" fill="#DBF0FF" />
  <circle cx="26" cy="45" r="12" fill="#63B8F6" />
  <path
    d="M92.4017 43.3203C106.833 43.4251 117.376 55.0188 117.376 69.0054V82.557L127.521 101.962H117.768V110.329C117.768 119.727 110.154 127.349 100.757 127.349H92.2582"
    stroke="#0E8DE6" strokeWidth="3" strokeMiterlimit="10" />
  <path d="M100.76 127.349V141.42" stroke="#0E8DE6" strokeWidth="3" strokeMiterlimit="10" />
  <path
    d="M58.3905 44.3079C58.3905 36.5532 64.7845 30.289 72.5878 30.5106C79.5576 30.708 85.3758 36.2148 85.9355 43.1678C86.2576 47.1721 84.8645 50.854 82.4164 53.5611C80.5723 55.5995 79.5254 58.2341 79.5254 60.9815V63.4912H64.8489V60.9815C64.8489 58.2381 63.8101 55.6076 61.97 53.5732C59.7474 51.128 58.3905 47.877 58.3905 44.3079Z"
    fill="#DBF0FF" stroke="#0E8DE6" strokeWidth="3" strokeMiterlimit="10" />
  <path d="M64.849 71.5283H79.5254" stroke="#0E8DE6" strokeWidth="3" strokeMiterlimit="10" strokeLinecap="square" />
  <path d="M69.1331 79.5605H75.2412" stroke="#0E8DE6" strokeWidth="3" strokeMiterlimit="10" strokeLinecap="square" />
  <path d="M51.8438 43.2002H41.0005" stroke="#0E8DE6" strokeWidth="3" strokeMiterlimit="10" />
  <path d="M57.8027 57.5938L50.1363 65.2598" stroke="#0E8DE6" strokeWidth="3" strokeMiterlimit="10" />
  <path d="M57.8027 28.8058L50.1363 21.1357" stroke="#0E8DE6" strokeWidth="3" strokeMiterlimit="10" />
  <path d="M72.1846 22.8445V12" stroke="#0E8DE6" strokeWidth="3" strokeMiterlimit="10" />
  <path d="M86.5719 28.8058L94.2383 21.1357" stroke="#0E8DE6" strokeWidth="3" strokeMiterlimit="10" />
  <path d="M63.7658 141.421V140.901L67.9131 122.414L63.3712 109.229" stroke="#0E8DE6" strokeWidth="3"
    strokeMiterlimit="10" />
  <circle cx="157.755" cy="75.754" r="9.03623" fill="#0E8DE6" />
  <circle cx="155.864" cy="89.0951" r="8.07653" fill="white" />
  <circle cx="176.3" cy="83.2043" r="14.4065" fill="white" />
  <rect x="155.863" y="89.1406" width="21.9609" height="8.02949" fill="white" />
  <circle cx="161.362" cy="82.3507" r="2.65538" fill="white" />
  <path fillRule="evenodd" clipRule="evenodd"
    d="M166.645 100.398L156.901 100.398C150.591 100.398 145.475 95.2824 145.475 88.9716C145.475 82.6607 150.591 77.5448 156.901 77.5448C157.835 77.5448 158.742 77.6567 159.61 77.8678C161.904 71.0442 168.353 66.1289 175.949 66.1289C183.138 66.1289 189.299 70.5304 191.884 76.7855C190.482 76.3497 189.015 76.0648 187.5 75.9498C185.072 72.2659 180.899 69.8347 176.157 69.8347C169.25 69.8347 164.058 75.0567 163.363 79.5089C163.206 80.5121 162.819 81.1701 162.155 81.8735C161.61 82.2302 161.192 82.314 160.699 82.2302C160.364 82.1733 160.08 82.0541 159.764 81.9212C159.145 81.6608 158.4 81.3478 156.901 81.3478C152.698 81.3478 149.291 84.7547 149.291 88.9573C149.291 93.1599 152.698 96.5667 156.901 96.5667H166.118C166.17 97.8808 166.35 99.162 166.645 100.398Z"
    fill="#63B8F6" />
  <path
    d="M165.987 95.8503C165.987 106.89 174.936 115.839 185.976 115.839C197.015 115.839 205.965 106.89 205.965 95.8503C205.965 84.8107 197.015 75.8613 185.976 75.8613C174.936 75.8613 165.987 84.8107 165.987 95.8503Z"
    fill="white" />
  <circle cx="160.292" cy="60.5365" r="2.53649" fill="#0E8DE6" />
  <circle cx="142.536" cy="75.7533" r="2.53649" fill="#0E8DE6" />
  <circle cx="147.611" cy="63.0726" r="2.53649" fill="#0E8DE6" />
  <path fillRule="evenodd" clipRule="evenodd"
    d="M170.307 96.2881C170.307 87.6641 177.256 80.6729 185.827 80.6729C190.962 80.6729 195.511 83.1848 198.332 87.0396L194.141 90.1436C192.258 87.5699 189.236 85.9084 185.827 85.9084C180.13 85.9084 175.511 90.5556 175.511 96.2881C175.511 102.021 180.13 106.668 185.827 106.668C190.193 106.668 193.926 103.938 195.431 100.082H187.894V94.8469H201.537L201.283 97.6987C200.572 105.662 193.928 111.903 185.827 111.903C177.256 111.903 170.307 104.912 170.307 96.2881Z"
    fill="#663399" />
  <path
    d="M198.98 96.7303H190.951V99.0241H196.457C195.654 102.465 193.131 105.332 189.804 106.479L176.615 93.2895C177.991 89.2754 181.891 86.4081 186.364 86.4081C189.804 86.4081 192.901 88.1284 194.851 90.7663L196.571 89.2754C194.277 86.1787 190.607 84.1143 186.364 84.1143C180.4 84.1143 175.353 88.3578 174.092 93.9777L189.231 109.117C194.736 107.741 198.98 102.694 198.98 96.7303Z"
    fill="white" />
  <path
    d="M173.747 96.8457C173.747 100.057 175.009 103.154 177.417 105.562C179.826 107.971 183.037 109.232 186.134 109.232L173.747 96.8457Z"
    fill="white" />
  <path
    d="M186.363 80.6738C177.532 80.6738 170.307 87.8994 170.307 96.7306C170.307 105.562 177.532 112.787 186.363 112.787C195.195 112.787 202.42 105.562 202.42 96.7306C202.42 87.8994 195.195 80.6738 186.363 80.6738ZM177.417 105.676C175.009 103.268 173.747 100.057 173.747 96.96L186.249 109.347C183.037 109.232 179.826 108.085 177.417 105.676ZM189.116 109.003L174.091 93.978C175.353 88.3581 180.399 84.1146 186.363 84.1146C190.607 84.1146 194.277 86.179 196.571 89.2757L194.851 90.7666C192.901 88.1287 189.804 86.4084 186.363 86.4084C181.89 86.4084 178.106 89.2757 176.615 93.2898L189.804 106.479C193.13 105.332 195.653 102.465 196.456 99.0244H190.951V96.7306H198.979C198.979 102.695 194.736 107.741 189.116 109.003Z"
    fill="#0E8DE6" />
</svg>
