<svg width="72" height="72" viewBox="0 0 72 72" fill="none" xmlns="http://www.w3.org/2000/svg">
<circle cx="36" cy="36" r="36" fill="url(#paint0_linear)" fill-opacity="0.25"/>
<path fill-rule="evenodd" clip-rule="evenodd" d="M27 20C28.1046 20 29 19.1046 29 18C29 16.8954 28.1046 16 27 16C25.8954 16 25 16.8954 25 18C25 19.1046 25.8954 20 27 20ZM17 30C18.1046 30 19 29.1046 19 28C19 26.8954 18.1046 26 17 26C15.8954 26 15 26.8954 15 28C15 29.1046 15.8954 30 17 30ZM21 20C21 21.1046 20.1046 22 19 22C17.8954 22 17 21.1046 17 20C17 18.8954 17.8954 18 19 18C20.1046 18 21 18.8954 21 20ZM27 34C30.3137 34 33 31.3137 33 28C33 24.6863 30.3137 22 27 22C23.6863 22 21 24.6863 21 28C21 31.3137 23.6863 34 27 34Z" fill="#663399"/>
<path d="M28.914 31.8071L29.0127 31.7425L29.0937 31.6568C29.8127 30.8948 30.2831 30.1118 30.4644 28.9508C30.7381 27.1971 31.9301 25.1781 33.8533 23.5853C35.7608 22.0056 38.3206 20.9033 41.2381 20.9033C47.5771 20.9033 52.7159 26.042 52.7159 32.381C52.7159 38.7201 47.5771 43.8588 41.2381 43.8588C40.2613 43.8588 39.3144 43.737 38.411 43.5083L38.2902 43.4777H38.1656H23.536C20.2249 43.4777 17.5408 40.7935 17.5408 37.4824C17.5408 34.1713 20.2249 31.4872 23.536 31.4872C24.4556 31.4872 24.984 31.6292 25.3756 31.7732C25.5204 31.8265 25.628 31.8719 25.7498 31.9233C25.8285 31.9565 25.9132 31.9922 26.0176 32.0342C26.2523 32.1285 26.53 32.2281 26.8598 32.2842C27.5961 32.4094 28.2331 32.2528 28.914 31.8071Z" fill="white" stroke="#663399" stroke-width="2"/>
<path fill-rule="evenodd" clip-rule="evenodd" d="M36.5 36.5C38.433 36.5 40 34.933 40 33H42C43.1046 33 44 33.8954 44 35V54C44 55.1046 43.1046 56 42 56H31C29.8954 56 29 55.1046 29 54V35C29 33.8954 29.8954 33 31 33H33C33 34.933 34.567 36.5 36.5 36.5Z" fill="white"/>
<path d="M40 33V31C38.8954 31 38 31.8954 38 33H40ZM33 33H35C35 31.8954 34.1046 31 33 31V33ZM38 33C38 33.8284 37.3284 34.5 36.5 34.5V38.5C39.5376 38.5 42 36.0376 42 33H38ZM40 35H42V31H40V35ZM42 35H46C46 32.7909 44.2091 31 42 31V35ZM42 35V54H46V35H42ZM42 54V58C44.2091 58 46 56.2091 46 54H42ZM42 54H31V58H42V54ZM31 54H31H27C27 56.2091 28.7909 58 31 58V54ZM31 54V35H27V54H31ZM31 35V35V31C28.7909 31 27 32.7909 27 35H31ZM31 35H33V31H31V35ZM36.5 34.5C35.6716 34.5 35 33.8284 35 33H31C31 36.0376 33.4624 38.5 36.5 38.5V34.5Z" fill="white"/>
<path fill-rule="evenodd" clip-rule="evenodd" d="M36.5 36.5C38.433 36.5 40 34.933 40 33H42C43.1046 33 44 33.8954 44 35V54C44 55.1046 43.1046 56 42 56H31C29.8954 56 29 55.1046 29 54V35C29 33.8954 29.8954 33 31 33H33C33 34.933 34.567 36.5 36.5 36.5Z" fill="url(#paint1_linear)"/>
<path d="M32 40H41.1565" stroke="white" stroke-width="1.5" stroke-linecap="round" stroke-linejoin="round"/>
<path d="M32.7979 53.2261H34.3239" stroke="white" stroke-width="1.5" stroke-linecap="round" stroke-linejoin="round"/>
<path d="M37.3762 53.2261H38.9023" stroke="white" stroke-width="1.5" stroke-linecap="round" stroke-linejoin="round"/>
<path d="M32.8501 44.0696H33.6131C33.8155 44.0696 34.0096 44.15 34.1527 44.2931C34.2958 44.4362 34.3762 44.6303 34.3762 44.8326V50.1739" stroke="white" stroke-width="1.5" stroke-linecap="round" stroke-linejoin="round"/>
<path d="M32.8501 50.1739H35.9023" stroke="white" stroke-width="1.5" stroke-linecap="round" stroke-linejoin="round"/>
<defs>
<linearGradient id="paint0_linear" x1="54" y1="36" x2="51.0103" y2="-3.56413" gradientUnits="userSpaceOnUse">
<stop stop-color="#F2C4E3"/>
<stop offset="0.956493" stop-color="#F1DEFA"/>
<stop offset="1" stop-color="white"/>
</linearGradient>
<linearGradient id="paint1_linear" x1="36.5" y1="33" x2="36.5" y2="56" gradientUnits="userSpaceOnUse">
<stop stop-color="#F67300"/>
<stop offset="1" stop-color="#BC027F"/>
</linearGradient>
</defs>
</svg>
