<svg width="72" height="72" viewBox="0 0 72 72" fill="none" xmlns="http://www.w3.org/2000/svg">
<circle cx="36" cy="36" r="36" fill="url(#paint0_linear)" fill-opacity="0.25"/>
<path d="M36 16C32.0444 16 28.1776 17.173 24.8886 19.3706C21.5996 21.5682 19.0362 24.6918 17.5224 28.3463C16.0087 32.0009 15.6126 36.0222 16.3843 39.9018C17.156 43.7815 19.0608 47.3451 21.8578 50.1422C24.6549 52.9392 28.2185 54.844 32.0982 55.6157C35.9778 56.3874 39.9991 55.9913 43.6537 54.4776C47.3082 52.9638 50.4318 50.4004 52.6294 47.1114C54.827 43.8224 56 39.9556 56 36C56 30.6957 53.8929 25.6086 50.1422 21.8579C46.3914 18.1071 41.3043 16 36 16Z" fill="white" stroke="white" stroke-width="1.5" stroke-linecap="round" stroke-linejoin="round"/>
<path d="M49.5116 51.0159C46.1801 54.2051 41.8527 56.151 37.2561 56.5267C32.6594 56.9023 28.0735 55.685 24.2683 53.0791C20.4631 50.4731 17.6705 46.6372 16.3593 42.2156C15.0481 37.7939 15.2982 33.0558 17.0676 28.7967" stroke="#663399" stroke-width="2" stroke-linecap="square"/>
<path d="M51.9668 48.2566L49.0881 59L46.7583 53.4651L41.2234 51.1353L51.9668 48.2566Z" fill="#663399"/>
<path fill-rule="evenodd" clip-rule="evenodd" d="M22.193 13.9887L19.3144 24.7321L30.0578 21.8534L25.8954 20.1014C28.3615 18.645 31.1408 17.7523 34.0327 17.5138C38.4036 17.1533 42.7654 18.309 46.3843 20.7865C50.0033 23.2641 52.6586 26.9123 53.9037 31.1176C55.1488 35.323 54.9077 39.8288 53.221 43.8772L52.8364 44.8003L54.6826 45.5695L55.0672 44.6464C56.9306 40.1738 57.197 35.1958 55.8214 30.5499C54.4459 25.9039 51.5123 21.8734 47.5141 19.1362C43.516 16.399 38.6972 15.1222 33.8683 15.5206C30.4106 15.8058 27.0988 16.9374 24.2135 18.7888L22.193 13.9887Z" fill="#F67300"/>
<path d="M36 25C34.1288 24.9973 32.291 25.4954 30.6772 26.4427C29.0635 27.3899 27.7326 28.7517 26.8228 30.3868C25.913 32.0219 25.4573 33.8707 25.503 35.7414C25.5488 37.612 26.0943 39.4363 27.083 41.025L24 47.5L30.474 44.416C31.8547 45.2748 33.4159 45.8012 35.0347 45.9537C36.6535 46.1062 38.2856 45.8807 39.8024 45.295C41.3192 44.7092 42.6792 43.7792 43.7753 42.5782C44.8713 41.3772 45.6735 39.9381 46.1186 38.3743C46.5637 36.8104 46.6395 35.1646 46.3401 33.5664C46.0407 31.9683 45.3742 30.4615 44.3932 29.1648C43.4122 27.8682 42.1434 26.817 40.6869 26.0943C39.2304 25.3716 37.626 24.997 36 25Z" fill="url(#paint1_linear)"/>
<path d="M41 31L35.692 38.5725C35.606 38.6951 35.4964 38.7964 35.3706 38.8697C35.2449 38.943 35.1059 38.9865 34.963 38.9973C34.8201 39.0081 34.6768 38.986 34.5426 38.9324C34.4085 38.8788 34.2866 38.795 34.1853 38.6867L31 35.2799" stroke="white" stroke-width="3" stroke-linecap="round" stroke-linejoin="round"/>
<defs>
<linearGradient id="paint0_linear" x1="54" y1="36" x2="51.0103" y2="-3.56413" gradientUnits="userSpaceOnUse">
<stop stop-color="#F2C4E3"/>
<stop offset="0.956493" stop-color="#F1DEFA"/>
<stop offset="1" stop-color="white"/>
</linearGradient>
<linearGradient id="paint1_linear" x1="35.2598" y1="25" x2="35.2598" y2="47.5" gradientUnits="userSpaceOnUse">
<stop stop-color="#F67300"/>
<stop offset="1" stop-color="#BC027F"/>
</linearGradient>
</defs>
</svg>
