<svg width="72" height="72" viewBox="0 0 72 72" fill="none" xmlns="http://www.w3.org/2000/svg">
<circle cx="36" cy="36" r="36" fill="url(#paint0_linear)" fill-opacity="0.25"/>
<mask id="mask0" mask-type="alpha" maskUnits="userSpaceOnUse" x="16" y="16" width="40" height="40">
<circle cx="36" cy="36" r="20" fill="#DBF0FF"/>
</mask>
<g mask="url(#mask0)">
<circle cx="36" cy="36" r="20" fill="white"/>
<path fill-rule="evenodd" clip-rule="evenodd" d="M32.7785 26.7231C30.9283 26.7231 29.4169 25.2117 29.4169 23.3616C29.4169 21.5114 30.9283 20 32.7785 20C34.6286 20 36.14 21.5114 36.14 23.3616V26.7231H32.7785ZM24.3616 43.583C26.2117 43.583 27.7231 42.0716 27.7231 40.2215V36.8599H24.3616C22.5114 36.8599 21 38.3713 21 40.2215C21 42.0716 22.5114 43.583 24.3616 43.583ZM32.7785 36.8599C30.9283 36.8599 29.4169 38.3713 29.4169 40.2215V48.6384C29.4169 50.4886 30.9283 52 32.7785 52C34.6286 52 36.14 50.4886 36.14 48.6384V40.2215C36.14 38.3713 34.6286 36.8599 32.7785 36.8599ZM36.1401 31.7785C36.1401 29.9283 34.6287 28.4169 32.7785 28.4169H24.3616C22.5114 28.4169 21 29.9283 21 31.7785C21 33.6286 22.5114 35.14 24.3616 35.14H32.7785C34.6287 35.14 36.1401 33.6286 36.1401 31.7785ZM46.2768 31.7785C46.2768 29.9283 47.7882 28.4169 49.6384 28.4169C51.4885 28.4169 52.9999 29.9283 52.9999 31.7785C52.9999 33.6286 51.4885 35.14 49.6384 35.14H46.2768V31.7785ZM41.2214 35.1401C43.0715 35.1401 44.5829 33.6287 44.5829 31.7785V23.3616C44.5829 21.5114 43.0715 20 41.2214 20C39.3712 20 37.8598 21.5114 37.8598 23.3616V31.7785C37.8598 33.6287 39.3712 35.1401 41.2214 35.1401ZM41.2214 45.2769C43.0715 45.2769 44.5829 46.7883 44.5829 48.6384C44.5829 50.4886 43.0715 52 41.2214 52C39.3712 52 37.8598 50.4886 37.8598 48.6384V45.2769H41.2214ZM37.8598 40.2215C37.8598 42.0716 39.3712 43.583 41.2214 43.583H49.6383C51.4885 43.583 52.9999 42.0716 52.9999 40.2215C52.9999 38.3713 51.4885 36.8599 49.6383 36.8599H41.2214C39.3712 36.8599 37.8598 38.3713 37.8598 40.2215Z" fill="#FFE6F6"/>
<circle cx="50.7165" cy="53.3096" r="6.03656" fill="#663399"/>
<path d="M50.5411 46.4709C52.4859 46.4709 54.0624 44.8943 54.0624 42.9496C54.0624 41.0048 52.4859 39.4282 50.5411 39.4282C48.5963 39.4282 47.0198 41.0048 47.0198 42.9496C47.0198 44.8943 48.5963 46.4709 50.5411 46.4709Z" fill="#663399"/>
<circle cx="21.7165" cy="53.3096" r="6.03656" fill="#D9BAE8"/>
<path d="M21.5411 46.4709C23.4859 46.4709 25.0624 44.8943 25.0624 42.9496C25.0624 41.0048 23.4859 39.4282 21.5411 39.4282C19.5963 39.4282 18.0198 41.0048 18.0198 42.9496C18.0198 44.8943 19.5963 46.4709 21.5411 46.4709Z" fill="#D9BAE8"/>
<path fill-rule="evenodd" clip-rule="evenodd" d="M40.6906 42.5359C40.6906 45.0363 38.6636 47.0633 36.1632 47.0633C33.6627 47.0633 31.6357 45.0363 31.6357 42.5359C31.6357 40.0355 33.6627 38.0085 36.1632 38.0085C38.6636 38.0085 40.6906 40.0355 40.6906 42.5359ZM36.5063 64.9751C41.322 64.9751 45.2258 61.0712 45.2258 56.2556C45.2258 51.44 41.322 47.5361 36.5063 47.5361C31.6907 47.5361 27.7869 51.44 27.7869 56.2556C27.7869 61.0712 31.6907 64.9751 36.5063 64.9751Z" fill="url(#paint1_linear)"/>
<path d="M36.1632 46.3133C38.2494 46.3133 39.9406 44.6221 39.9406 42.5359H41.4406C41.4406 45.4505 39.0778 47.8133 36.1632 47.8133V46.3133ZM32.3857 42.5359C32.3857 44.6221 34.077 46.3133 36.1632 46.3133V47.8133C33.2485 47.8133 30.8857 45.4505 30.8857 42.5359H32.3857ZM36.1632 38.7585C34.077 38.7585 32.3857 40.4497 32.3857 42.5359H30.8857C30.8857 39.6213 33.2485 37.2585 36.1632 37.2585V38.7585ZM39.9406 42.5359C39.9406 40.4497 38.2494 38.7585 36.1632 38.7585V37.2585C39.0778 37.2585 41.4406 39.6213 41.4406 42.5359H39.9406ZM45.9758 56.2556C45.9758 61.4855 41.7362 65.7251 36.5063 65.7251V64.2251C40.9078 64.2251 44.4758 60.657 44.4758 56.2556H45.9758ZM36.5063 46.7861C41.7362 46.7861 45.9758 51.0258 45.9758 56.2556H44.4758C44.4758 51.8542 40.9078 48.2861 36.5063 48.2861V46.7861ZM27.0369 56.2556C27.0369 51.0258 31.2765 46.7861 36.5063 46.7861V48.2861C32.1049 48.2861 28.5369 51.8542 28.5369 56.2556H27.0369ZM36.5063 65.7251C31.2765 65.7251 27.0369 61.4855 27.0369 56.2556H28.5369C28.5369 60.657 32.1049 64.2251 36.5063 64.2251V65.7251Z" fill="white"/>
</g>
<path d="M57 22C57 26.4183 53.4183 30 49 30L38 30L38 22C38 17.5817 41.5817 14 46 14L49 14C53.4183 14 57 17.5817 57 22Z" fill="white"/>
<path fill-rule="evenodd" clip-rule="evenodd" d="M49 28.5L39.5 28.5L39.5 22C39.5 18.4102 42.4101 15.5 46 15.5L49 15.5C52.5899 15.5 55.5 18.4101 55.5 22C55.5 25.5899 52.5899 28.5 49 28.5ZM57 22C57 26.4183 53.4183 30 49 30L39.5 30L38 30L38 28.5L38 22C38 17.5817 41.5817 14 46 14L49 14C53.4183 14 57 17.5817 57 22ZM43.9504 26.5C43.5362 26.5 43.2004 26.1642 43.2004 25.75C43.2004 25.3358 43.5362 25 43.9504 25L50.4504 25C50.8646 25 51.2004 25.3358 51.2004 25.75C51.2004 26.1642 50.8646 26.5 50.4504 26.5L43.9504 26.5ZM43.2004 22.25C43.2004 22.6642 43.5362 23 43.9504 23L50.4504 23C50.8646 23 51.2004 22.6642 51.2004 22.25C51.2004 21.8358 50.8646 21.5 50.4504 21.5L43.9504 21.5C43.5362 21.5 43.2004 21.8358 43.2004 22.25ZM43.9504 19.5C43.5362 19.5 43.2004 19.1642 43.2004 18.75C43.2004 18.3358 43.5362 18 43.9504 18L50.4504 18C50.8646 18 51.2004 18.3358 51.2004 18.75C51.2004 19.1642 50.8646 19.5 50.4504 19.5L43.9504 19.5Z" fill="url(#paint2_linear)"/>
<path d="M18 26C18 30.9706 22.0294 35 27 35L36 35L36 26C36 21.0294 31.9706 17 27 17C22.0294 17 18 21.0294 18 26Z" fill="url(#paint3_linear)"/>
<path d="M36.1417 16L41.9865 9.90364C42.4998 9.39049 42.8386 8.72893 42.9551 8.01259C43.0716 7.29625 42.9599 6.56141 42.6358 5.91205C42.3906 5.42186 42.0325 4.99694 41.5909 4.67228C41.1493 4.34763 40.6369 4.13254 40.0959 4.04472C39.5549 3.95691 39.0007 3.99889 38.4791 4.16721C37.9575 4.33553 37.4834 4.62536 37.0957 5.01284L36.1417 5.96692L35.1876 5.01284C34.8001 4.62536 34.3261 4.33551 33.8046 4.16718C33.2831 3.99886 32.729 3.95688 32.1881 4.0447C31.6472 4.13252 31.1349 4.34762 30.6935 4.67229C30.252 4.99695 29.894 5.42188 29.649 5.91205C29.3243 6.56115 29.2121 7.29601 29.3283 8.01245C29.4446 8.72889 29.7834 9.39056 30.2968 9.90364L36.1417 16Z" fill="url(#paint4_linear)" stroke="white" stroke-width="1.5" stroke-linecap="square"/>
<defs>
<linearGradient id="paint0_linear" x1="54" y1="36" x2="51.0103" y2="-3.56413" gradientUnits="userSpaceOnUse">
<stop stop-color="#F2C4E3"/>
<stop offset="0.956493" stop-color="#F1DEFA"/>
<stop offset="1" stop-color="white"/>
</linearGradient>
<linearGradient id="paint1_linear" x1="36.5063" y1="38.0085" x2="36.5063" y2="64.9751" gradientUnits="userSpaceOnUse">
<stop stop-color="#F67300"/>
<stop offset="1" stop-color="#BC027F"/>
</linearGradient>
<linearGradient id="paint2_linear" x1="54.6646" y1="15.3043" x2="54.6646" y2="30" gradientUnits="userSpaceOnUse">
<stop stop-color="#BC027F"/>
<stop offset="1" stop-color="#663399"/>
</linearGradient>
<linearGradient id="paint3_linear" x1="33.7875" y1="18.4674" x2="33.7875" y2="35" gradientUnits="userSpaceOnUse">
<stop stop-color="#693399"/>
<stop offset="1" stop-color="#BC027F"/>
</linearGradient>
<linearGradient id="paint4_linear" x1="36.1418" y1="4" x2="36.1418" y2="16" gradientUnits="userSpaceOnUse">
<stop stop-color="#F67300"/>
<stop offset="1" stop-color="#BC027F"/>
</linearGradient>
</defs>
</svg>
