<svg width="72" height="72" viewBox="0 0 72 72" fill="none"
    xmlns="http://www.w3.org/2000/svg">
    <path d="M47 36H40V38H44.8C44.1 41 41.9 43.5 39 44.5L27.5 33C28.7 29.5 32.1 27 36 27C39 27 41.7 28.5 43.4 30.8L44.9 29.5C42.9 26.8 39.7 25 36 25C30.8 25 26.4 28.7 25.3 33.6L38.5 46.8C43.3 45.6 47 41.2 47 36Z" fill="white"/>
    <path d="M25 36.1001C25 38.9001 26.1 41.6001 28.2 43.7001C30.3 45.8001 33.1 46.9001 35.8 46.9001L25 36.1001Z" fill="white"/>
    <path d="M36 22C28.3 22 22 28.3 22 36C22 43.7 28.3 50 36 50C43.7 50 50 43.7 50 36C50 28.3 43.7 22 36 22ZM28.2 43.8C26.1 41.7 25 38.9 25 36.2L35.9 47C33.1 46.9 30.3 45.9 28.2 43.8ZM38.4 46.7L25.3 33.6C26.4 28.7 30.8 25 36 25C39.7 25 42.9 26.8 44.9 29.5L43.4 30.8C41.7 28.5 39 27 36 27C32.1 27 28.8 29.5 27.5 33L39 44.5C41.9 43.5 44.1 41 44.8 38H40V36H47C47 41.2 43.3 45.6 38.4 46.7Z" fill="url(#paint0_linear)"/>
    <path d="M44.83 56.56C48.3368 56.56 49.9146 58.1454 49.946 61.6976C49.9479 61.9081 50.0317 62.1096 50.1797 62.2594C50.3277 62.4092 50.5282 62.4955 50.7387 62.5H50.756C50.9639 62.5005 51.1641 62.4209 51.315 62.2777C51.4658 62.1345 51.5557 61.9388 51.566 61.731C51.742 58.2038 53.3588 56.56 56.656 56.56H56.696C56.9108 56.5623 57.1177 56.4792 57.2712 56.3289C57.4248 56.1786 57.5123 55.9735 57.5146 55.7586C57.5169 55.5438 57.4337 55.3369 57.2835 55.1834C57.1332 55.0298 56.9281 54.9423 56.7132 54.94C53.1935 54.8655 51.5573 53.2401 51.566 49.8251V49.8122C51.5664 49.7058 51.5458 49.6005 51.5055 49.5021C51.4652 49.4037 51.4059 49.3143 51.3309 49.2388C51.256 49.1634 51.1669 49.1035 51.0688 49.0625C50.9707 49.0215 50.8655 49.0003 50.7592 49C50.6528 48.9996 50.5474 49.0201 50.449 49.0604C50.3505 49.1007 50.261 49.16 50.1855 49.235C50.11 49.3099 50.05 49.3989 50.0089 49.497C49.9678 49.5951 49.9464 49.7004 49.946 49.8068C49.9341 53.2606 48.3011 54.8914 44.8041 54.94C44.5893 54.9416 44.3839 55.0284 44.2331 55.1814C44.0823 55.3345 43.9984 55.5411 44 55.7559C44.0016 55.9708 44.0884 56.1762 44.2415 56.327C44.3945 56.4777 44.6011 56.5616 44.816 56.56H44.83Z" fill="#BC027F"/>
    <path d="M52.4919 44.48C54.5699 44.48 55.505 45.4195 55.5235 47.5245C55.5247 47.6493 55.5743 47.7687 55.662 47.8574C55.7497 47.9462 55.8685 47.9973 55.9933 48H56.0035C56.1268 48.0003 56.2454 47.9531 56.3348 47.8683C56.4242 47.7834 56.4774 47.6674 56.4835 47.5443C56.5878 45.4541 57.5459 44.48 59.4998 44.48H59.5235C59.6508 44.4814 59.7735 44.4321 59.8644 44.343C59.9554 44.254 60.0073 44.1324 60.0086 44.0051C60.01 43.8778 59.9607 43.7552 59.8717 43.6642C59.7826 43.5732 59.6611 43.5214 59.5338 43.52C57.448 43.4758 56.4784 42.5126 56.4835 40.489V40.4813C56.4838 40.4183 56.4716 40.3558 56.4477 40.2975C56.4238 40.2392 56.3887 40.1862 56.3443 40.1415C56.2999 40.0968 56.2471 40.0613 56.1889 40.037C56.1308 40.0128 56.0685 40.0002 56.0055 40C55.9424 39.9998 55.8799 40.0119 55.8216 40.0358C55.7633 40.0597 55.7102 40.0948 55.6655 40.1392C55.6207 40.1836 55.5852 40.2364 55.5608 40.2945C55.5364 40.3527 55.5238 40.415 55.5235 40.4781C55.5165 42.5248 54.5488 43.4912 52.4765 43.52C52.3492 43.5209 52.2275 43.5724 52.1381 43.6631C52.0488 43.7538 51.9991 43.8762 52 44.0035C52.0009 44.1308 52.0524 44.2525 52.1431 44.3419C52.2338 44.4313 52.3562 44.4809 52.4835 44.48H52.4919Z" fill="#BC027F"/>
    <path d="M18.3689 22.36C19.9274 22.36 20.6287 23.0646 20.6426 24.6434C20.6435 24.7369 20.6808 24.8265 20.7465 24.8931C20.8123 24.9597 20.9014 24.998 20.995 25H21.0026C21.0951 25.0002 21.1841 24.9649 21.2511 24.9012C21.3181 24.8376 21.3581 24.7506 21.3626 24.6582C21.4409 23.0906 22.1594 22.36 23.6249 22.36H23.6426C23.7381 22.361 23.8301 22.3241 23.8983 22.2573C23.9666 22.1905 24.0055 22.0993 24.0065 22.0038C24.0075 21.9084 23.9706 21.8164 23.9038 21.7482C23.837 21.6799 23.7458 21.641 23.6503 21.64C22.086 21.6069 21.3588 20.8845 21.3626 19.3667V19.361C21.3628 19.3137 21.3537 19.2669 21.3358 19.2232C21.3179 19.1794 21.2915 19.1397 21.2582 19.1062C21.2249 19.0726 21.1853 19.046 21.1417 19.0278C21.0981 19.0096 21.0513 19.0001 21.0041 19C20.9568 18.9998 20.91 19.0089 20.8662 19.0269C20.8225 19.0448 20.7827 19.0711 20.7491 19.1044C20.7155 19.1377 20.6889 19.1773 20.6706 19.2209C20.6523 19.2645 20.6428 19.3113 20.6426 19.3586C20.6374 20.8936 19.9116 21.6184 18.3574 21.64C18.2619 21.6407 18.1706 21.6793 18.1036 21.7473C18.0366 21.8153 17.9993 21.9072 18 22.0026C18.0007 22.0981 18.0393 22.1894 18.1073 22.2564C18.1753 22.3234 18.2672 22.3607 18.3626 22.36H18.3689Z" fill="#663399" stroke="#663399" stroke-width="0.5"/>
    <defs>
        <linearGradient id="paint0_linear" gradientTransform="rotate(90)">
            <stop offset="5%" stop-color="#663399"/>
            <stop offset="95%" stop-color="#BC027F"/>
        </linearGradient>
    </defs>
</svg>
