<svg width="240" height="513" viewBox="0 0 240 513" fill="none" xmlns="http://www.w3.org/2000/svg">
  <g clip-path="url(#clip0_4839_6008)">
    <path d="M199.5 188C199.5 194.351 194.351 199.5 188 199.5C181.648 199.5 176.5 194.351 176.5 188C176.5 181.649 181.648 176.5 188 176.5C194.351 176.5 199.5 181.649 199.5 188Z" stroke="#D9D7E0"/>
    <path d="M163.531 123.406C163.531 123.406 194.994 132.752 199.618 135.162C204.33 137.523 211.037 139.54 209.425 142.549C207.814 145.557 196.543 143.635 196.543 143.635" fill="white"/>
    <path d="M163.531 123.406C163.531 123.406 194.994 132.752 199.618 135.162C204.33 137.523 211.037 139.54 209.425 142.549C207.814 145.557 196.543 143.635 196.543 143.635" stroke="#D9D7E0" stroke-miterlimit="10"/>
    <path d="M173.959 128.046L200.784 146.383C200.784 146.383 214.597 156.306 211.919 159.468C209.192 162.544 195.766 153.09 195.766 153.09" fill="white"/>
    <path d="M173.959 128.046L200.784 146.383C200.784 146.383 214.597 156.306 211.919 159.468C209.192 162.544 195.766 153.09 195.766 153.09" stroke="#D9D7E0" stroke-miterlimit="10"/>
    <path d="M-34.9889 195.211C-34.9889 195.211 -27.6971 161.441 16.7807 127.679C33.7163 114.823 50.4873 108.08 65.7042 104.642C78.8105 101.114 94.6872 98.8801 112.219 100.983C114.901 101.305 117.482 101.703 119.982 102.154C120.531 102.165 134.407 104.693 141.899 108.155C159.771 114.885 170.124 123.016 173.843 126.719C177.562 130.421 186.19 138.519 193.08 148.637C203.36 163.736 206.059 170.357 203.132 172.048C201.389 173.054 196.164 167.179 191.101 161.211C186.039 155.242 176.911 140.074 166.948 145.826C159.154 150.326 159.873 160.908 160.529 164.659C162.439 175.565 171.235 190.001 163.094 194.701C163.094 194.701 153.625 176.898 152.38 174.843C143.195 159.684 133.385 150.193 114.039 144.735C84.6384 136.44 62.4661 150.608 54.3987 155.035C46.3313 159.462 31.2303 172.106 28.4306 178.457" fill="white"/>
    <path d="M-34.9889 195.211C-34.9889 195.211 -27.6971 161.441 16.7807 127.679C33.7163 114.823 50.4873 108.08 65.7042 104.642C78.8105 101.114 94.6872 98.8801 112.219 100.983C114.901 101.305 117.482 101.703 119.982 102.154C120.531 102.165 134.407 104.693 141.899 108.155C159.771 114.885 170.124 123.016 173.843 126.719C177.562 130.421 186.19 138.519 193.08 148.637C203.36 163.736 206.059 170.357 203.132 172.048C201.389 173.054 196.164 167.179 191.101 161.211C186.039 155.242 176.911 140.074 166.948 145.826C159.154 150.326 159.873 160.908 160.529 164.659C162.439 175.565 171.235 190.001 163.094 194.701C163.094 194.701 153.625 176.898 152.38 174.843C143.195 159.684 133.385 150.193 114.039 144.735C84.6384 136.44 62.4661 150.608 54.3987 155.035C46.3313 159.462 31.2303 172.106 28.4306 178.457" stroke="#D9D7E0" stroke-miterlimit="10"/>
    <rect x="-240.212" y="96.9408" width="339.711" height="339.711" transform="rotate(15 -240.212 96.9408)" fill="#FFDF37"/>
  </g>
  <defs>
    <clipPath id="clip0_4839_6008">
     <rect width="240" height="513" fill="white"/>
    </clipPath>
  </defs>
</svg>
