<svg width="168" height="350" viewBox="0 0 168 350" fill="none" xmlns="http://www.w3.org/2000/svg">
    <g clip-path="url(#clip0_4839_6009)">
      <path d="M55.0916 178.465L44.0107 171.05L97.4035 91.2673L108.484 98.683L55.0916 178.465Z" fill="white" stroke="#D9D7E0" stroke-miterlimit="10"/>
      <path d="M61.1425 130.717C61.1425 130.717 63.3175 107.573 64.5766 100.198C65.7883 92.7352 67.1737 88.1308 69.3746 88.4238C71.711 88.7576 71.4592 98.4291 71.4592 98.4291C71.4592 98.4291 66.4169 115.798 66.3012 116.428" fill="white"/>
      <path d="M61.1425 130.717C61.1425 130.717 63.3175 107.573 64.5766 100.198C65.7883 92.7352 67.1737 88.1308 69.3746 88.4238C71.711 88.7576 71.4592 98.4291 71.4592 98.4291C71.4592 98.4291 66.4169 115.798 66.3012 116.428" stroke="#D9D7E0" stroke-miterlimit="10"/>
      <path d="M82.0784 93.2663C82.0784 93.2663 85.4113 82.8908 80.8926 82.6741C75.5656 82.7694 69.7745 103.11 69.7745 103.11L62.3866 122.277" fill="white"/>
      <path d="M82.0784 93.2663C82.0784 93.2663 85.4113 82.8908 80.8926 82.6741C75.5656 82.7694 69.7745 103.11 69.7745 103.11L62.3866 122.277" stroke="#D9D7E0" stroke-miterlimit="10"/>
      <path d="M64.8154 120.327C65.9966 117.669 67.5733 114.797 69.6576 111.736C81.9599 93.6667 86.9258 85.6358 88.07 84.219C91.0665 80.5087 95.2094 80.4987 93.6189 85.5259L85.6853 104.282" fill="white"/>
      <path d="M64.8154 120.327C65.9966 117.669 67.5733 114.797 69.6576 111.736C81.9599 93.6667 86.9258 85.6358 88.07 84.219C91.0665 80.5087 95.2094 80.4987 93.6189 85.5259L85.6853 104.282" stroke="#D9D7E0" stroke-miterlimit="10"/>
      <path d="M60.9276 145.771C60.9276 145.771 58.5432 133.037 64.3337 120.005C64.3337 120.005 66.4009 112.87 77.7448 106.932C89.0887 100.994 93.3911 99.0606 93.3911 99.0606C93.3911 99.0606 97.9356 97.4392 95.8475 101.908C93.7595 106.376 86.538 112.223 82.8605 113.672" fill="white"/>
      <path d="M60.9276 145.771C60.9276 145.771 58.5432 133.037 64.3337 120.005C64.3337 120.005 66.4009 112.87 77.7448 106.932C89.0887 100.994 93.3911 99.0606 93.3911 99.0606C93.3911 99.0606 97.9356 97.4392 95.8475 101.908C93.7595 106.376 86.538 112.223 82.8605 113.672" stroke="#D9D7E0" stroke-miterlimit="10"/>
      <path d="M261.286 317.46C261.286 317.46 209.468 330.612 148.385 289.733C75.4586 240.928 64.0831 165.03 64.0831 165.03L84.7378 130.421L94.8992 108.944C94.8992 108.944 100.887 100.447 102.355 110.389C102.355 110.389 99.6378 125.679 98.1131 134.258C96.5885 142.837 106.801 213.873 172.732 257.996C172.732 257.996 216.272 286.733 263.297 278.496" fill="white"/>
      <path d="M261.286 317.46C261.286 317.46 209.468 330.612 148.385 289.733C75.4586 240.928 64.0831 165.03 64.0831 165.03L84.7378 130.421L94.8992 108.944C94.8992 108.944 100.887 100.447 102.355 110.389C102.355 110.389 99.6378 125.679 98.1131 134.258C96.5885 142.837 106.801 213.873 172.732 257.996C172.732 257.996 216.272 286.733 263.297 278.496" stroke="#D9D7E0" stroke-miterlimit="10"/>
      <path d="M117.178 73.7067L108.484 98.683L102.944 94.9752L97.4036 91.2673L117.178 73.7067Z" fill="white" stroke="#D9D7E0" stroke-miterlimit="10"/>
      <path d="M115.206 76.6899L109.739 81.4984L112.846 83.5778L115.206 76.6899Z" fill="#D9BAE8" stroke="#D9D7E0"/>
      <path d="M82.6185 113.36L44.0107 171.05" stroke="#D9D7E0" stroke-miterlimit="10"/>
      <circle cx="165.352" cy="40" r="40" transform="rotate(-90 165.352 40)" fill="#159BF3"/>
    </g>
  <defs>
    <clipPath id="clip0_4839_6009">
    <rect width="168" height="350" fill="white"/>
    </clipPath>
  </defs>
</svg>
