<svg width="72" height="72" viewBox="0 0 72 72" fill="none" xmlns="http://www.w3.org/2000/svg">
<circle cx="36" cy="36" r="36" fill="white"/>
<path d="M55.9985 26C55.9985 26.5523 55.5508 27 54.9985 27L40.9985 27C40.4462 27 39.9985 26.5523 39.9985 26L39.9985 17L55.9985 17L55.9985 26Z" fill="#FFD280"/>
<path d="M35.9985 57L19.9985 57L19.9985 48C19.9985 47.4477 20.4463 47 20.9985 47L34.9985 47C35.5508 47 35.9985 47.4477 35.9985 48L35.9985 57Z" fill="#F1DEFA"/>
<rect x="19.9985" y="21.5" width="16" height="22" rx="1.5" fill="#D9BAE8"/>
<path d="M32.4985 24.25H23.4985C23.0843 24.25 22.7485 24.5858 22.7485 25V34C22.7485 34.4142 23.0843 34.75 23.4985 34.75H32.4985C32.9127 34.75 33.2485 34.4142 33.2485 34V25C33.2485 24.5858 32.9127 24.25 32.4985 24.25Z" stroke="white" stroke-width="1.5" stroke-linecap="round" stroke-linejoin="round"/>
<path d="M26.7485 40.75H29.7485" stroke="white" stroke-width="1.5" stroke-linecap="round" stroke-linejoin="round"/>
<path d="M24.9985 37.75H31.4985" stroke="white" stroke-width="1.5" stroke-linecap="round" stroke-linejoin="round"/>
<path d="M22.9685 24.47L33.0285 34.53" stroke="white" stroke-width="1.5" stroke-linecap="round" stroke-linejoin="round"/>
<path d="M33.0285 24.47L22.9685 34.53" stroke="white" stroke-width="1.5" stroke-linecap="round" stroke-linejoin="round"/>
<rect x="55.9985" y="52.5" width="16" height="22" rx="1.5" transform="rotate(-180 55.9985 52.5)" fill="url(#paint0_linear)"/>
<path d="M46.7485 41.75H49.7485" stroke="white" stroke-width="1.5" stroke-linecap="round" stroke-linejoin="round"/>
<path d="M44.7485 39H51.2485" stroke="white" stroke-width="1.5" stroke-linecap="round" stroke-linejoin="round"/>
<rect x="44.7485" y="46" width="6.5" height="3" rx="1.5" stroke="white" stroke-width="1.5"/>
<circle cx="48.2485" cy="34.5" r="2.5" fill="white"/>
<path d="M16 52.9225L20.11 48.8125L28.728 45.4985L25.417 54.1194L21.307 58.2294L16 52.9225Z" fill="white"/>
<path d="M20.11 48.8125L28.728 45.4985L25.414 54.1165" fill="white"/>
<path d="M20.11 48.8125L28.728 45.4985L25.414 54.1165" stroke="#663399" stroke-width="1.5" stroke-linecap="round" stroke-linejoin="round"/>
<path d="M16 52.9225L20.11 48.8125L20.962 51.3675C21.1092 51.8101 21.3576 52.2123 21.6874 52.5421C22.0172 52.8719 22.4194 53.1203 22.862 53.2675L25.417 54.1195L21.307 58.2295" fill="white"/>
<path d="M16 52.9225L20.11 48.8125L20.962 51.3675C21.1092 51.8101 21.3576 52.2123 21.6874 52.5421C22.0172 52.8719 22.4194 53.1203 22.862 53.2675L25.417 54.1195L21.307 58.2295" stroke="#663399" stroke-width="1.5" stroke-linecap="square" stroke-linejoin="round"/>
<path d="M21.4985 52.728L16.925 57.3015" stroke="#663399" stroke-width="1.5" stroke-linecap="square" stroke-linejoin="round"/>
<path d="M50.9985 14.001L53.7625 17.111C54.0369 17.4197 54.1774 17.8247 54.1531 18.237C54.1288 18.6493 53.9417 19.0351 53.633 19.3095C53.3243 19.5838 52.9192 19.7243 52.5069 19.7001C52.0946 19.6758 51.7089 19.4887 51.4345 19.18L49.4985 17.001L49.4985 26.001C49.4985 26.3988 49.3405 26.7803 49.0592 27.0616C48.7778 27.3429 48.3963 27.501 47.9985 27.501C47.6007 27.501 47.2191 27.3429 46.9378 27.0616C46.6565 26.7803 46.4985 26.3988 46.4985 26.001L46.4985 19.251L44.9985 19.251C43.805 19.251 42.6604 18.7769 41.8165 17.933C40.9726 17.089 40.4985 15.9444 40.4985 14.751L40.4985 14" fill="white"/>
<path d="M50.9985 14.001L53.7625 17.111C54.0369 17.4197 54.1774 17.8247 54.1531 18.237C54.1288 18.6493 53.9417 19.0351 53.633 19.3095C53.3243 19.5838 52.9192 19.7243 52.5069 19.7001C52.0946 19.6758 51.7089 19.4887 51.4345 19.18L49.4985 17.001L49.4985 26.001C49.4985 26.3988 49.3405 26.7803 49.0592 27.0616C48.7778 27.3429 48.3963 27.501 47.9985 27.501C47.6007 27.501 47.2191 27.3429 46.9378 27.0616C46.6565 26.7803 46.4985 26.3988 46.4985 26.001L46.4985 19.251L44.9985 19.251C43.805 19.251 42.6604 18.7769 41.8165 17.933C40.9726 17.089 40.4985 15.9444 40.4985 14.751L40.4985 14" stroke="url(#paint1_linear)" stroke-width="1.5" stroke-linecap="round" stroke-linejoin="round"/>
<defs>
<linearGradient id="paint0_linear" x1="63.9985" y1="52.5" x2="63.9985" y2="74.5" gradientUnits="userSpaceOnUse">
<stop stop-color="#F67300"/>
<stop offset="1" stop-color="#BC027F"/>
</linearGradient>
<linearGradient id="paint1_linear" x1="47.3271" y1="27.501" x2="47.3271" y2="14" gradientUnits="userSpaceOnUse">
<stop stop-color="#F67300"/>
<stop offset="1" stop-color="#BC027F"/>
</linearGradient>
</defs>
</svg>
